<svg width="26" height="28" viewBox="0 0 26 28" fill="none" xmlns="http://www.w3.org/2000/svg">
<g clip-path="url(#clip0_71_481)">
<path d="M13 23.7778C18.3848 23.7778 22.75 19.2447 22.75 13.6528C22.75 8.06095 18.3848 3.52783 13 3.52783C7.61522 3.52783 3.25 8.06095 3.25 13.6528C3.25 19.2447 7.61522 23.7778 13 23.7778Z" stroke="#C8C8C8" stroke-width="1.6875" stroke-linecap="round" stroke-linejoin="round"/>
<path d="M17.0625 9.4341H15.4375C15.117 9.43271 14.7995 9.49723 14.5031 9.62394C14.2068 9.75065 13.9376 9.93705 13.711 10.1724C13.4843 10.4077 13.3048 10.6873 13.1828 10.995C13.0608 11.3028 12.9987 11.6326 13 11.9654V23.7779" stroke="#C8C8C8" stroke-width="1.6875" stroke-linecap="round" stroke-linejoin="round"/>
<path d="M9.75 15.3403H16.25" stroke="#C8C8C8" stroke-width="1.6875" stroke-linecap="round" stroke-linejoin="round"/>
</g>
<defs>
<clipPath id="clip0_71_481">
<rect width="26" height="27" fill="white" transform="translate(0 0.152832)"/>
</clipPath>
</defs>
</svg>
