<svg width="26" height="27" viewBox="0 0 26 27" fill="none" xmlns="http://www.w3.org/2000/svg">
<g clip-path="url(#clip0_71_476)">
<path d="M13 17.2153C15.2437 17.2153 17.0625 15.3965 17.0625 13.1528C17.0625 10.9092 15.2437 9.09033 13 9.09033C10.7563 9.09033 8.9375 10.9092 8.9375 13.1528C8.9375 15.3965 10.7563 17.2153 13 17.2153Z" stroke="#C8C8C8" stroke-width="1.625" stroke-miterlimit="10"/>
<path d="M17.4688 3.80908H8.53125C5.83886 3.80908 3.65625 5.99169 3.65625 8.68408V17.6216C3.65625 20.314 5.83886 22.4966 8.53125 22.4966H17.4688C20.1611 22.4966 22.3438 20.314 22.3438 17.6216V8.68408C22.3438 5.99169 20.1611 3.80908 17.4688 3.80908Z" stroke="#C8C8C8" stroke-width="1.625" stroke-linecap="round" stroke-linejoin="round"/>
<path d="M18.2812 9.09033C18.9543 9.09033 19.5 8.54468 19.5 7.87158C19.5 7.19848 18.9543 6.65283 18.2812 6.65283C17.6082 6.65283 17.0625 7.19848 17.0625 7.87158C17.0625 8.54468 17.6082 9.09033 18.2812 9.09033Z" fill="#C8C8C8"/>
</g>
<defs>
<clipPath id="clip0_71_476">
<rect width="26" height="26" fill="white" transform="translate(0 0.152832)"/>
</clipPath>
</defs>
</svg>
