<svg width="25" height="26" viewBox="0 0 25 26" fill="none" xmlns="http://www.w3.org/2000/svg">
<g clip-path="url(#clip0_71_493)">
<path d="M15.625 12.6528L10.9375 9.52783V15.7778L15.625 12.6528Z" stroke="#C8C8C8" stroke-width="1.5625" stroke-linecap="round" stroke-linejoin="round"/>
<path d="M2.34375 12.6529C2.34375 15.563 2.64648 17.2623 2.87109 18.1412C2.93303 18.3796 3.05014 18.6002 3.21299 18.7851C3.37583 18.97 3.57985 19.1141 3.80859 19.2056C7.08008 20.4556 12.5 20.4263 12.5 20.4263C12.5 20.4263 17.9199 20.4556 21.1914 19.2056C21.4201 19.1141 21.6242 18.97 21.787 18.7851C21.9499 18.6002 22.067 18.3796 22.1289 18.1412C22.3535 17.2623 22.6562 15.563 22.6562 12.6529C22.6562 9.74273 22.3535 8.04352 22.1289 7.16461C22.067 6.92613 21.9499 6.70555 21.787 6.52065C21.6242 6.33576 21.4201 6.19172 21.1914 6.10016C17.9199 4.85016 12.5 4.87945 12.5 4.87945C12.5 4.87945 7.08008 4.85016 3.80859 6.10016C3.57985 6.19172 3.37583 6.33576 3.21299 6.52065C3.05014 6.70555 2.93303 6.92613 2.87109 7.16461C2.64648 8.04352 2.34375 9.74273 2.34375 12.6529Z" stroke="#C8C8C8" stroke-width="1.5625" stroke-linecap="round" stroke-linejoin="round"/>
</g>
<defs>
<clipPath id="clip0_71_493">
<rect width="25" height="25" fill="white" transform="translate(0 0.152832)"/>
</clipPath>
</defs>
</svg>
