<svg width="23" height="20" viewBox="0 0 23 20" fill="none" xmlns="http://www.w3.org/2000/svg">
<path d="M21.9039 7.09632C21.7577 6.92976 21.5777 6.79618 21.3758 6.7045C21.1739 6.61281 20.9547 6.56512 20.7328 6.56459H17.1836L11.9501 0.597754C11.8768 0.514854 11.7867 0.44846 11.6857 0.402982C11.5848 0.357504 11.4753 0.333984 11.3645 0.333984C11.2538 0.333984 11.1443 0.357504 11.0433 0.402982C10.9424 0.44846 10.8523 0.514854 10.779 0.597754L5.54546 6.56459H1.99623C1.7738 6.5646 1.55394 6.61203 1.35136 6.70371C1.14879 6.79539 0.968185 6.92921 0.82164 7.0962C0.675096 7.26319 0.565995 7.4595 0.501645 7.67198C0.437294 7.88446 0.419179 8.10822 0.448512 8.32825L1.80106 18.4574C1.85121 18.8317 2.03589 19.1751 2.32076 19.4238C2.60563 19.6724 2.9713 19.8093 3.34976 19.8091H19.3793C19.7578 19.8093 20.1234 19.6724 20.4083 19.4238C20.6932 19.1751 20.8779 18.8317 20.928 18.4574L22.2815 8.32923C22.3104 8.10873 22.2916 7.88462 22.2265 7.67197C22.1613 7.45931 22.0513 7.26303 21.9039 7.09632ZM6.83652 16.6927C6.8102 16.6942 6.78381 16.6942 6.75748 16.6927C6.56327 16.6937 6.37567 16.6224 6.23131 16.4928C6.08695 16.3631 5.99621 16.1844 5.97679 15.9916L5.4303 10.5379C5.4096 10.3323 5.47158 10.127 5.60262 9.96698C5.73365 9.80699 5.92301 9.7055 6.12902 9.68484C6.33504 9.66418 6.54084 9.72603 6.70116 9.8568C6.86148 9.98757 6.96317 10.1765 6.98388 10.3821L7.53036 15.8357C7.55223 16.0412 7.49141 16.2469 7.36129 16.4076C7.23117 16.5684 7.04241 16.6709 6.83652 16.6927ZM12.1452 15.9136C12.1452 16.1203 12.063 16.3184 11.9166 16.4645C11.7702 16.6107 11.5716 16.6927 11.3645 16.6927C11.1575 16.6927 10.9589 16.6107 10.8125 16.4645C10.6661 16.3184 10.5838 16.1203 10.5838 15.9136V10.46C10.5838 10.2534 10.6661 10.0552 10.8125 9.90913C10.9589 9.76303 11.1575 9.68095 11.3645 9.68095C11.5716 9.68095 11.7702 9.76303 11.9166 9.90913C12.063 10.0552 12.1452 10.2534 12.1452 10.46V15.9136ZM7.62014 6.56459L11.3645 2.29422L15.1089 6.56459H7.62014ZM17.2939 10.5379L16.7474 15.9916C16.7281 16.1836 16.638 16.3616 16.4947 16.4911C16.3514 16.6207 16.165 16.6925 15.9716 16.6927C15.9453 16.6942 15.9189 16.6942 15.8926 16.6927C15.7905 16.6825 15.6916 16.6523 15.6012 16.6039C15.5109 16.5555 15.431 16.4898 15.3661 16.4106C15.3013 16.3314 15.2526 16.2402 15.2231 16.1422C15.1935 16.0443 15.1836 15.9414 15.1938 15.8396L15.7403 10.386C15.761 10.1804 15.8627 9.99146 16.023 9.86069C16.1834 9.72993 16.3892 9.66807 16.5952 9.68874C16.8012 9.7094 16.9905 9.81089 17.1216 9.97087C17.2526 10.1309 17.3146 10.3362 17.2939 10.5418V10.5379Z" fill="#303030"/>
</svg>
