<svg width="17" height="17" viewBox="0 0 17 17" fill="none" xmlns="http://www.w3.org/2000/svg">
<path d="M1 4.62761V2.98055C1 2.54373 1.17559 2.12479 1.48816 1.81591C1.80072 1.50702 2.22464 1.3335 2.66667 1.3335H14.3333C14.7754 1.3335 15.1993 1.50702 15.5118 1.81591C15.8244 2.12479 16 2.54373 16 2.98055V4.62761M1 4.62761V9.56879M1 4.62761H6M16 4.62761V7.92173M16 4.62761H6M1 9.56879V12.8629C1 13.2997 1.17559 13.7187 1.48816 14.0276C1.80072 14.3364 2.22464 14.51 2.66667 14.51H6M1 9.56879H6M6 4.62761V9.56879M6 14.51V9.56879M6 14.51H7.66667M6 9.56879H9.33333C9.77536 9.56879 10.1993 9.39526 10.5118 9.08638C10.8244 8.77749 11 8.35856 11 7.92173V4.62761M13.5 10.3923V12.8629M13.5 12.8629V15.3335M13.5 12.8629H16M13.5 12.8629H11" stroke="black" stroke-width="2" stroke-linecap="round" stroke-linejoin="round"/>
</svg>
