<svg width="33" height="24" viewBox="0 0 33 24" fill="none" xmlns="http://www.w3.org/2000/svg">
<path d="M26.6113 6.46787L19.1113 2.34287C19.0005 2.28195 18.8762 2.25 18.7498 2.25C18.6234 2.25 18.499 2.28195 18.3883 2.34287L10.8883 6.46787C10.7707 6.53261 10.6726 6.62773 10.6043 6.7433C10.536 6.85886 10.5 6.99064 10.5 7.12487C10.5 7.25911 10.536 7.39088 10.6043 7.50645C10.6726 7.62201 10.7707 7.71713 10.8883 7.78187L17.9998 11.6931V19.7324L15.7228 18.4799L14.9998 19.7931L18.3883 21.6569C18.499 21.7179 18.6233 21.75 18.7498 21.75C18.8762 21.75 19.0006 21.7179 19.1113 21.6569L26.6113 17.5319C26.7289 17.4672 26.827 17.3721 26.8953 17.2565C26.9637 17.1409 26.9997 17.0091 26.9998 16.8749V7.12487C26.9997 6.99061 26.9637 6.85882 26.8953 6.74326C26.827 6.62769 26.7289 6.53258 26.6113 6.46787ZM18.7498 3.85637L24.6935 7.12487L18.7498 10.3934L12.806 7.12487L18.7498 3.85637ZM25.4998 16.4316L19.4998 19.7316V11.6924L25.4998 8.39237V16.4316Z" fill="#333333"/>
<path d="M12 12H6V10.5H12V12ZM13.5 18H7.5V16.5H13.5V18ZM15 15H9V13.5H15V15Z" fill="#333333"/>
</svg>
