<svg width="33" height="24" viewBox="0 0 33 24" fill="none" xmlns="http://www.w3.org/2000/svg">
<path d="M17.173 12.0001C18.6599 12.0001 19.8653 10.7947 19.8653 9.30779C19.8653 7.82087 18.6599 6.61548 17.173 6.61548C15.6861 6.61548 14.4807 7.82087 14.4807 9.30779C14.4807 10.7947 15.6861 12.0001 17.173 12.0001Z" stroke="black" stroke-linecap="round" stroke-linejoin="round"/>
<path d="M7.75 6.61537H9.09615V5.26921C9.09615 4.55517 9.37981 3.87037 9.88471 3.36546C10.3896 2.86056 11.0744 2.5769 11.7885 2.5769H22.5577C23.2717 2.5769 23.9565 2.86056 24.4614 3.36546C24.9663 3.87037 25.25 4.55517 25.25 5.26921V18.7308C25.25 19.4448 24.9663 20.1296 24.4614 20.6345C23.9565 21.1394 23.2717 21.4231 22.5577 21.4231H11.7885C11.0744 21.4231 10.3896 21.1394 9.88471 20.6345C9.37981 20.1296 9.09615 19.4448 9.09615 18.7308V17.3846H7.75M7.75 12H9.09615M7.75 9.30767H9.09615M7.75 14.6923H9.09615" stroke="black" stroke-linecap="round" stroke-linejoin="round"/>
<path fill-rule="evenodd" clip-rule="evenodd" d="M21.2114 16.0385V14.6923C21.2114 13.9783 20.9278 13.2935 20.4229 12.7886C19.918 12.2837 19.2332 12 18.5191 12H15.8268C15.1128 12 14.428 12.2837 13.9231 12.7886C13.4182 13.2935 13.1345 13.9783 13.1345 14.6923V16.0385C13.1345 16.3955 13.2763 16.7379 13.5288 16.9903C13.7813 17.2428 14.1237 17.3846 14.4807 17.3846H19.8653C20.2223 17.3846 20.5647 17.2428 20.8172 16.9903C21.0696 16.7379 21.2114 16.3955 21.2114 16.0385Z" stroke="black" stroke-linecap="round" stroke-linejoin="round"/>
</svg>
