<svg width="33" height="24" viewBox="0 0 33 24" fill="none" xmlns="http://www.w3.org/2000/svg">
<path fill-rule="evenodd" clip-rule="evenodd" d="M15.6789 1.62222C15.2769 1.79152 15.69 1.48012 10.7459 5.34037C9.75609 6.1132 8.50557 7.086 7.96701 7.50219C6.48388 8.64823 6.26007 8.89169 6.08594 9.54849C5.96732 9.99581 5.97336 20.3796 6.09254 20.839C6.25492 21.4651 6.70725 22.0005 7.34295 22.3191L7.65926 22.4776L10.401 22.4938C13.4535 22.5118 13.4183 22.5155 13.8078 22.1357C14.2258 21.7281 14.2028 21.9231 14.2339 18.5254L14.2619 15.4722L14.4189 15.3367L14.5759 15.2011H16.5H18.4242L18.5812 15.3367L18.7382 15.4722L18.7662 18.5254C18.7973 21.9231 18.7743 21.7281 19.1922 22.1357C19.5818 22.5155 19.5466 22.5118 22.599 22.4938L25.3408 22.4776L25.6485 22.3285C26.2696 22.0278 26.7451 21.4651 26.9075 20.839C27.0263 20.381 27.0328 9.99373 26.9145 9.55411C26.742 8.9126 26.5373 8.68127 25.2569 7.68099C24.7183 7.2603 23.4177 6.24535 22.3666 5.42561C21.3155 4.60587 19.8426 3.45697 19.0933 2.87243C18.344 2.28795 17.5925 1.74438 17.4233 1.66453C17.1678 1.54401 17.0206 1.51676 16.556 1.50394C16.0716 1.49063 15.9538 1.50653 15.6789 1.62222ZM17.1155 2.5771C17.2386 2.64835 17.9352 3.17271 18.6635 3.74235C19.3919 4.31194 21.0758 5.62508 22.4055 6.66037C25.6079 9.15354 25.6831 9.21506 25.8598 9.4832L26.0122 9.71447V15.2062V20.698L25.8428 20.9401C25.7496 21.0732 25.5649 21.2587 25.4324 21.3523L25.1914 21.5224L22.6362 21.5386C21.2309 21.5475 20.0288 21.5417 19.9648 21.5258C19.7262 21.4667 19.7174 21.3524 19.7168 18.3029L19.7163 15.3978L19.5833 15.111C19.433 14.7868 19.2328 14.5756 18.9061 14.3966C18.6868 14.2765 18.6373 14.274 16.5 14.274C14.3627 14.274 14.3132 14.2765 14.094 14.3966C13.7673 14.5756 13.5671 14.7868 13.4167 15.111L13.2838 15.3978L13.2832 18.3261C13.2827 21.2131 13.281 21.2565 13.1654 21.404L13.0482 21.5537L10.4284 21.538L7.80866 21.5224L7.56766 21.3523C7.43511 21.2587 7.2504 21.0732 7.15724 20.9401L6.98781 20.698V15.2011V9.70425L7.15763 9.46061C7.3082 9.24462 8.04383 8.63969 9.90045 7.20518C10.3615 6.84899 10.6611 6.61514 13.8328 4.13579C14.8381 3.34993 15.7614 2.64857 15.8845 2.57727C16.2016 2.39353 16.7983 2.39342 17.1155 2.5771Z" fill="black"/>
</svg>
