<svg width="22" height="17" viewBox="0 0 22 17" fill="none" xmlns="http://www.w3.org/2000/svg">
<path d="M1.60417 0.666992H20.3958C21.2813 0.666992 22 1.38379 22 2.26699V15.067C22 15.4913 21.831 15.8983 21.5301 16.1984C21.2293 16.4984 20.8213 16.667 20.3958 16.667H1.60417C1.17872 16.667 0.770689 16.4984 0.46985 16.1984C0.16901 15.8983 0 15.4913 0 15.067L0 2.26699C0 1.38379 0.718667 0.666992 1.60417 0.666992ZM1.375 4.70082V15.067C1.375 15.1932 1.47767 15.2956 1.60417 15.2956H20.3958C20.4566 15.2956 20.5149 15.2715 20.5579 15.2286C20.6009 15.1858 20.625 15.1276 20.625 15.067V4.70082L11.8983 10.5824C11.3557 10.9481 10.6443 10.9481 10.1017 10.5824L1.375 4.70082ZM1.375 2.26699V3.04596L10.8717 9.44596C10.9096 9.47151 10.9543 9.48516 11 9.48516C11.0457 9.48516 11.0904 9.47151 11.1283 9.44596L20.625 3.04596V2.26699C20.625 2.20637 20.6009 2.14823 20.5579 2.10537C20.5149 2.0625 20.4566 2.03842 20.3958 2.03842H1.60417C1.54339 2.03842 1.4851 2.0625 1.44212 2.10537C1.39914 2.14823 1.375 2.20637 1.375 2.26699Z" fill="#5D5E61"/>
</svg>
