<svg width="19" height="20" viewBox="0 0 19 20" fill="none" xmlns="http://www.w3.org/2000/svg">
<path fill-rule="evenodd" clip-rule="evenodd" d="M2.08298 1.5257C0.336837 3.02855 0 3.48579 0 4.35298C0 7.36159 5.39827 13.9005 10.7065 17.3221C13.1034 18.8671 15.0003 19.3983 16.0399 18.8157C16.7287 18.4297 19 15.7627 19 15.3401C19 14.8633 14.7839 11.2332 14.23 11.2332C14.0073 11.2332 13.2593 11.5189 12.5677 11.8681L11.31 12.5029L9.11422 10.3708C7.90648 9.19818 6.88998 8.13047 6.85508 7.99809C6.82017 7.8655 7.07585 7.19451 7.42301 6.50659C7.77017 5.81866 8.05394 5.13714 8.05373 4.99196C8.0527 4.60886 4.15646 0.287598 3.81198 0.287598C3.65213 0.287598 2.87416 0.844793 2.08298 1.5257ZM15.3332 2.81646L12.8043 5.34531V4.27388C12.8043 3.41083 12.7178 3.14173 12.3593 2.8906C12.0503 2.67416 11.8035 2.63823 11.5516 2.77309C11.2463 2.93645 11.1765 3.33586 11.1113 5.29327C11.0687 6.57247 11.1183 7.73539 11.2216 7.87727C11.4783 8.23022 16.1287 8.2393 16.4804 7.8876C17.1692 7.19885 16.429 6.48325 15.0278 6.48325H13.9764L16.4881 4.08987C18.323 2.34146 19 1.56411 19 1.20579C19 0.767141 18.4942 0.287598 18.0316 0.287598C17.9383 0.287598 16.7241 1.42553 15.3332 2.81646ZM4.91067 3.78463C5.5038 4.45851 5.98913 5.11174 5.98913 5.23627C5.98913 5.3606 5.71033 6.01465 5.36957 6.68977C5.0288 7.36489 4.75 8.03485 4.75 8.17859C4.75 8.32233 6.07318 9.7655 7.69025 11.3855C9.76394 13.4629 10.7701 14.3311 11.1038 14.3311C11.3641 14.3311 12.136 14.0488 12.8196 13.7039C14.2227 12.9955 13.9024 12.9015 15.9464 14.6202L16.9042 15.4256L16.0418 16.4273C15.5674 16.9781 15.0399 17.4287 14.8696 17.4287C13.768 17.4285 10.1152 15.0489 7.58265 12.6818C4.73183 10.0175 1.8587 5.9622 1.8587 4.60308C1.8587 4.11858 3.19489 2.55934 3.61 2.55934C3.73226 2.55934 4.31734 3.11075 4.91067 3.78463Z" fill="#5D5E61"/>
</svg>
